<svg width="151" height="58" viewBox="0 0 151 58" fill="none" xmlns="http://www.w3.org/2000/svg">
<path d="M51.1933 8.55587C51.3359 10.8619 51.3044 13.5899 51.3011 16.3168C51.2977 18.5133 51.1585 20.7097 50.9294 22.8914C50.7441 24.665 50.4645 26.4377 50.1006 28.1995C49.7155 30.0671 49.2753 31.9229 48.6689 33.7376C47.0686 38.5269 44.6329 42.956 41.0664 46.8957C39.1113 49.0559 36.9395 51.0243 34.4915 52.747C31.8974 54.5724 29.0821 56.1072 26.0131 57.2681C25.8065 57.3464 25.6436 57.3581 25.4269 57.2778C23.0361 56.4018 20.8003 55.2899 18.6914 53.9754C16.3275 52.5022 14.1894 50.806 12.2332 48.9423C9.8649 46.6862 7.89185 44.1834 6.25008 41.477C5.10915 39.5967 4.13891 37.6508 3.35508 35.6443C2.66334 33.8736 2.12319 32.0599 1.67738 30.2237C1.35396 28.8945 1.11702 27.5535 0.826171 26.2204C0.626284 25.3022 0.576873 24.3597 0.471315 23.4269C0.0648025 19.8601 -0.0430019 16.2826 0.0142692 12.7011C0.0457121 10.6877 0.141164 8.6743 0.247845 6.66188C0.273673 6.16954 0.369125 5.67623 0.33319 5.18193C0.312977 4.89808 0.464577 4.76202 0.726227 4.65533C2.44885 3.95059 4.1973 3.3085 6.00078 2.77113C7.39887 2.35416 8.80594 1.96068 10.2388 1.66313C11.8346 1.33131 13.4415 1.03082 15.062 0.782201C16.5072 0.560991 17.9648 0.436683 19.4123 0.24288C20.5847 0.0862711 21.784 0.0480977 22.9732 0.0236276C24.6981 -0.0106306 26.4252 -0.00377892 28.1501 0.0197124C29.9244 0.0432037 31.6874 0.208622 33.4527 0.379913C35.7716 0.605038 38.0591 0.976984 40.323 1.43213C42.4836 1.86672 44.6127 2.41778 46.6891 3.12644C48.0063 3.57571 49.2854 4.09252 50.5846 4.57605C50.9406 4.70819 51.0406 4.90982 51.0821 5.21717C51.2112 6.18814 51.2157 7.16107 51.1944 8.55587H51.1933ZM16.8396 36.5164C17.8941 36.5869 18.7767 36.3931 19.6223 36.119C20.8362 35.7255 21.7503 35.0365 22.1692 33.9167C22.5072 33.0113 22.3623 32.0912 22.3511 31.1702C22.3466 30.7268 22.1815 30.4586 21.7267 30.2266C20.5521 29.6295 19.866 27.9617 20.3096 26.8292C20.843 25.4686 22.3792 24.6425 24.0895 25.1701C24.3826 25.2602 24.5532 25.176 24.7228 25.0057C26.6902 23.0177 28.9429 21.296 31.282 19.6545C31.9412 19.1916 31.9412 19.1093 31.2517 18.6542C30.1647 17.9358 28.9485 17.4982 27.6043 17.2418C25.8469 16.907 24.1029 16.9501 22.3972 17.3132C20.1524 17.7919 18.4892 19.0565 17.1978 20.6852C16.2624 21.8657 15.6897 23.189 15.4471 24.6112C15.2169 25.9659 15.3034 27.2921 15.957 28.5666C16.4589 29.5444 17.245 30.4048 17.4921 31.4893C17.8379 33.0094 17.3595 34.365 16.4645 35.6433C16.2781 35.9095 15.7312 36.1034 15.9053 36.4058C16.0704 36.6906 16.6038 36.4733 16.8385 36.5145L16.8396 36.5164ZM26.2815 10.9226C24.6655 10.9001 23.2978 10.9862 21.9199 11.2906C19.4606 11.8329 17.2506 12.7589 15.3405 14.1928C12.5982 16.2512 11.0979 18.8803 10.5286 22.0027C10.213 23.7342 10.514 25.3786 10.861 27.0367C11.1226 28.2837 11.729 29.4641 12.0019 30.7141C12.3612 32.3565 12.3208 33.949 11.1181 35.3712C11.0328 35.472 10.889 35.5914 10.9968 35.7197C11.1125 35.8577 11.2944 35.8273 11.4617 35.7588C11.5976 35.703 11.7481 35.6707 11.8772 35.6061C13.2562 34.9239 13.756 33.7415 13.9716 32.5033C14.2422 30.9509 13.7908 29.4416 13.2394 27.9626C12.8419 26.8948 12.6251 25.7828 12.6734 24.6699C12.7464 22.9658 13.1451 21.3068 14.0019 19.7514C15.1889 17.5981 17.0002 15.9713 19.4258 14.8701C20.9081 14.1977 22.5128 13.9138 24.1523 13.6682C26.4252 13.3295 28.6217 13.6525 30.8227 14.0225C31.1731 14.0812 31.346 14.0342 31.5268 13.8121C31.8637 13.397 32.2051 12.9859 32.5476 12.5748C32.9283 12.1177 32.8452 11.874 32.2163 11.7213C30.204 11.2319 28.1871 10.7572 26.2815 10.9207V10.9226ZM34.4769 36.8267C34.6475 36.8267 34.8182 36.8267 34.9889 36.8267C35.5448 36.8238 36.0703 36.6936 36.3309 36.2492C36.6038 35.7852 36.5532 35.2978 36.0973 34.8955C35.9008 34.7223 35.912 34.55 36.0995 34.3748C36.2152 34.2661 36.3196 34.1487 36.4331 34.0381C36.5959 33.8815 36.716 33.7249 36.5319 33.5154C36.3612 33.3226 36.177 33.1679 35.8648 33.2384C35.6829 33.2795 35.4999 33.3196 35.3168 33.3578C35.2012 33.3823 35.0484 33.5115 34.9777 33.3578C34.9137 33.2198 35.0844 33.1885 35.2135 33.1474C35.5673 33.0348 35.9075 32.8899 36.2657 32.7921C36.4825 32.7333 36.7486 32.6257 36.7037 32.471C36.606 32.1363 36.7688 31.7712 36.5397 31.4668C36.4668 31.3699 36.3118 31.3581 36.1748 31.3581C36.0232 31.3581 35.8716 31.3581 35.72 31.3552C35.5639 31.3532 35.3876 31.3424 35.391 31.1663C35.3932 31.0155 35.5819 31.0224 35.6975 31.0057C35.9019 30.9774 36.1119 30.9744 36.3196 30.9774C36.8699 30.9852 37.419 30.9783 37.9614 30.8961C38.4005 30.8286 38.5734 30.5574 38.396 30.2109C38.0906 29.6149 37.7559 29.0295 37.4662 28.4276C36.9665 27.392 36.3646 26.3779 36.4207 25.2044C36.4364 24.8706 36.2635 24.8716 35.9637 24.9743C34.5004 25.4716 33.0305 25.9531 31.5628 26.4406C30.4117 26.8223 29.5224 27.4351 28.8576 28.3796C27.9334 29.6902 26.8778 30.9353 25.2719 31.7066C24.9923 31.8407 24.9822 31.9973 25.172 32.2263C25.6796 32.8341 26.2523 33.393 26.8789 33.903C29.0193 35.6453 31.5111 36.7141 34.4802 36.8286L34.4769 36.8267ZM30.971 43.7175C30.825 43.3406 30.7104 43.049 30.5993 42.7563C30.2489 41.8333 29.9446 40.8936 30.076 39.9138C30.1759 39.168 30.3724 38.43 30.5555 37.6949C30.6307 37.3924 30.6015 37.2172 30.2298 37.0773C28.7374 36.5145 27.4774 35.6805 26.4926 34.5402C25.9053 33.8609 25.3315 33.1738 24.8126 32.4524C24.6655 32.2478 24.5757 32.0129 24.1782 32.0873C23.7773 32.1627 23.7368 32.3956 23.7166 32.6668C23.6706 33.2912 23.583 33.9069 23.3191 34.4971C22.6566 35.979 21.4651 37.091 20.0681 38.061C19.9165 38.1667 19.7133 38.2577 19.7661 38.4378C19.8132 38.5973 20.0142 38.6688 20.2063 38.707C20.9564 38.8558 21.6627 39.119 22.3545 39.398C24.6846 40.3367 26.8239 41.5592 28.9508 42.8003C29.5459 43.1478 30.1198 43.5648 30.9698 43.7175H30.971ZM21.3652 27.3509C21.2787 28.3405 22.1041 29.1861 23.1574 29.1724C24.1827 29.1597 25.1237 28.6977 25.0698 27.6925C25.0417 27.1727 25.3056 27.115 25.6807 27.0523C26.0142 26.9966 26.3264 26.8879 26.6509 26.8174C28.4859 26.4191 30.2646 25.866 32.0501 25.3345C33.8929 24.7854 35.7436 24.2647 37.6268 23.8331C38.0063 23.7459 38.0816 23.5698 37.9603 23.2918C37.8401 23.0177 37.6897 22.7525 37.5504 22.4843C36.8676 21.1805 36.2579 19.8474 35.5178 18.5661C35.3281 18.2382 35.1405 18.2 34.8205 18.4144C34.1377 18.8735 33.4145 19.2904 32.7632 19.7808C29.9581 21.8901 27.2394 24.0807 24.7161 26.4504C24.6173 26.5424 24.524 26.7058 24.3331 26.4709C23.8626 25.8895 23.1473 25.8416 22.469 26.0432C21.7593 26.2546 21.3506 26.7499 21.364 27.3528L21.3652 27.3509ZM31.6706 42.1328C31.6133 42.3491 31.6897 42.493 31.7559 42.6516C32.0771 43.4209 32.5285 44.1384 32.9002 44.8871C33.0114 45.1113 33.1462 45.3932 32.9496 45.5821C32.7475 45.7759 32.4162 45.6369 32.1411 45.6046C32.0883 45.5987 32.0445 45.5537 31.9917 45.5351C30.56 45.032 29.2674 44.3038 27.9715 43.5902C26.1108 42.5654 24.3635 41.383 22.3433 40.5804C20.9373 40.0215 19.5066 39.5008 17.9446 39.5174C16.7273 39.5301 15.5134 39.7259 14.3421 40.046C14.1512 40.0979 13.7593 39.9687 13.7863 40.321C13.811 40.6391 14.1928 40.553 14.4095 40.6558C14.4567 40.6783 14.5196 40.6842 14.5757 40.6851C16.0064 40.6979 17.3551 41.0571 18.6622 41.5024C20.6824 42.1915 22.5723 43.1047 24.3511 44.1932C26.1501 45.2943 27.9199 46.4395 29.9783 47.1717C31.2686 47.6307 32.5892 47.9792 33.9872 48.034C34.6633 48.0604 34.9811 47.7453 35.0518 47.1717C35.3123 45.081 33.5066 43.1782 31.6695 42.1357L31.6706 42.1328ZM28.2343 9.81951C27.9378 8.98263 27.6975 8.23384 27.4011 7.50072C27.2809 7.20218 27.3124 7.0211 27.6088 6.83415C28.1265 6.50821 28.6206 6.15388 29.1248 5.8113C29.2764 5.70853 29.4673 5.58324 29.391 5.41293C29.3157 5.24555 29.0743 5.26023 28.8834 5.26806C28.259 5.29253 27.6335 5.31798 27.0092 5.3493C26.6711 5.36692 26.4668 5.31994 26.3825 4.95387C26.2613 4.43021 26.0176 3.92808 25.8065 3.42204C25.7537 3.29479 25.6942 3.12057 25.4685 3.13525C25.2742 3.14699 25.2472 3.30948 25.1967 3.42106C24.9811 3.89186 24.7071 4.3568 24.6071 4.84816C24.5117 5.31896 24.259 5.39922 23.7975 5.36594C23.2506 5.32679 22.7004 5.31896 22.1512 5.30232C21.9738 5.29743 21.7784 5.33952 21.6975 5.46872C21.592 5.63805 21.8042 5.72712 21.9233 5.81228C22.3848 6.14312 22.8508 6.47004 23.3303 6.77934C23.6234 6.96825 23.7166 7.13758 23.5516 7.46646C23.2506 8.06451 23.0294 8.6929 22.7823 9.31053C22.7329 9.43484 22.7026 9.58655 22.8441 9.6766C22.9721 9.75784 23.0878 9.66094 23.2012 9.5983C23.8491 9.23418 24.5162 8.89551 25.1406 8.50399C25.4314 8.32096 25.5909 8.36402 25.8694 8.52161C26.6128 8.93956 27.2787 9.46909 28.2332 9.81951H28.2343ZM14.0917 23.79C14.2287 23.5071 14.3534 23.281 14.4488 23.0451C15.1451 21.3293 16.1995 19.8151 17.7032 18.5407C19.1675 17.3005 20.8419 16.4069 22.8767 16.1015C24.871 15.802 26.8609 15.8744 28.8329 16.2571C30.1669 16.5165 30.1389 16.5155 30.5937 15.5533C30.7599 15.201 30.5633 15.1706 30.286 15.0913C29.3999 14.8369 28.4634 14.7664 27.5605 14.7223C25.5325 14.6215 23.5021 14.6323 21.5325 15.2636C19.6582 15.8646 17.9906 16.6809 16.6734 18.0199C15.4617 19.2522 14.7206 20.6882 14.259 22.2278C14.1198 22.6927 13.7762 23.1968 14.0895 23.79H14.0917Z" fill="#001B31"/>
<path d="M32.1904 27.3324C32.4779 26.9702 32.9226 26.9311 33.3111 26.7999C33.9467 26.5846 34.625 26.5454 35.2831 26.4201C35.438 26.3908 35.6682 26.3839 35.6952 26.5806C35.7244 26.797 35.4987 26.7882 35.3336 26.7872C34.7665 26.7813 34.497 26.9859 34.5756 27.5086C34.6082 27.7249 34.6385 28.0048 34.2106 27.9823C33.9782 27.9706 33.465 27.5458 33.4874 27.3784C33.5077 27.2218 33.7098 27.3196 33.785 27.2218C33.5065 27.2423 33.2303 27.1209 32.9675 27.2736C32.7407 27.4058 32.4948 27.4371 32.1916 27.3343L32.1904 27.3324Z" fill="#001B31"/>
<path d="M26.3936 25.9345C28.1768 24.4565 30.0488 23.0754 32.0993 21.8842C32.7866 21.4848 33.4379 21.0405 34.1072 20.6176C34.2374 20.5354 34.3789 20.3729 34.5406 20.5236C34.6608 20.6362 34.5171 20.7615 34.4441 20.877C33.6816 22.0868 32.443 22.8669 31.1819 23.6216C29.6737 24.524 27.9803 25.1407 26.3936 25.9345Z" fill="#001B31"/>
<path d="M22.8809 16.1388C24.8753 15.8393 26.8651 15.9117 28.8371 16.2944C30.1711 16.5538 30.1431 16.5528 30.5979 15.5907C30.7641 15.2383 30.5676 15.208 30.2902 15.1287C29.4042 14.8742 28.4676 14.8037 27.5648 14.7597C25.5367 14.6589 23.5064 14.6696 21.5367 15.301C19.6625 15.9019 17.9949 16.7183 16.6776 18.0573C15.466 19.2896 14.7248 20.7255 14.2633 22.2652C14.124 22.7301 13.7804 23.2342 14.0937 23.8273C14.2307 23.5445 14.3554 23.3183 14.4508 23.0825C15.147 21.3666 16.2015 19.8524 17.7051 18.578C19.1695 17.3379 20.8438 16.4442 22.8786 16.1388H22.8809Z" fill="#B9944F"/>
<path d="M15.9098 36.4451C16.0748 36.7299 16.6083 36.5126 16.843 36.5538C17.8974 36.6242 18.7801 36.4304 19.6257 36.1564C20.8396 35.7629 21.7537 35.0738 22.1725 33.9541C22.5105 33.0487 22.3657 32.1286 22.3545 31.2075C22.35 30.7641 22.1849 30.4959 21.7301 30.264C20.5555 29.6669 19.8693 27.999 20.3129 26.8665C20.8463 25.506 22.3825 24.6799 24.0928 25.2074C24.3859 25.2975 24.5566 25.2133 24.7261 25.043C26.6936 23.0551 28.9462 21.3333 31.2854 19.6919C31.9446 19.2289 31.9445 19.1467 31.255 18.6915C30.168 17.9731 28.9519 17.5356 27.6077 17.2791C25.8502 16.9444 24.1063 16.9874 22.4005 17.3506C20.1557 17.8292 18.4926 19.0938 17.2012 20.7226C16.2657 21.903 15.693 23.2263 15.4505 24.6486C15.2203 26.0032 15.3067 27.3295 15.9603 28.6039C16.4623 29.5817 17.2483 30.4421 17.4954 31.5266C17.8413 33.0467 17.3629 34.4023 16.4679 35.6807C16.2815 35.9469 15.7346 36.1407 15.9086 36.4432L15.9098 36.4451Z" fill="#B9944F"/>
<path d="M20.2126 38.7442C20.9627 38.893 21.669 39.1563 22.3608 39.4352C24.6909 40.3739 26.8302 41.5964 28.9571 42.8376C29.5522 43.185 30.1261 43.602 30.9761 43.7547C30.8302 43.3779 30.7156 43.0862 30.6044 42.7935C30.2541 41.8705 29.9498 40.9309 30.0811 39.9511C30.1811 39.2052 30.3776 38.4672 30.5607 37.7321C30.6359 37.4297 30.6067 37.2545 30.235 37.1145C28.7426 36.5517 27.4826 35.7177 26.4978 34.5774C25.9105 33.8981 25.3366 33.211 24.8178 32.4896C24.6707 32.2851 24.5809 32.0502 24.1833 32.1246C23.7824 32.1999 23.742 32.4329 23.7218 32.704C23.6758 33.3285 23.5882 33.9441 23.3243 34.5344C22.6617 36.0163 21.4703 37.1282 20.0733 38.0982C19.9217 38.2039 19.7184 38.2949 19.7712 38.475C19.8184 38.6346 20.0194 38.706 20.2114 38.7442H20.2126Z" fill="#B9944F"/>
<path d="M36.4241 25.2406C36.4398 24.9069 36.2669 24.9079 35.967 25.0106C34.5038 25.5079 33.0339 25.9894 31.5661 26.4769C30.4151 26.8586 29.5257 27.4713 28.8609 28.4159C27.9367 29.7265 26.8811 30.9715 25.2753 31.7428C24.9957 31.8769 24.9856 32.0336 25.1754 32.2626C25.6829 32.8704 26.2557 33.4293 26.8823 33.9393C29.0226 35.6816 31.5145 36.7504 34.4836 36.8649C34.6543 36.8649 34.825 36.8649 34.9957 36.8649C35.5515 36.862 36.0771 36.7318 36.3376 36.2874C36.6105 35.8235 36.56 35.336 36.104 34.9338C35.9075 34.7605 35.9187 34.5882 36.1063 34.413C36.2219 34.3044 36.3264 34.1869 36.4398 34.0763C36.6026 33.9197 36.7228 33.7631 36.5386 33.5536C36.3679 33.3608 36.1838 33.2062 35.8716 33.2766C35.6897 33.3177 35.5066 33.3579 35.3236 33.396C35.2079 33.4205 35.0552 33.5497 34.9844 33.396C34.9204 33.258 35.0911 33.2267 35.2203 33.1856C35.574 33.073 35.9142 32.9282 36.2725 32.8303C36.4892 32.7716 36.7553 32.6639 36.7104 32.5092C36.6127 32.1745 36.7756 31.8094 36.5465 31.505C36.4735 31.4081 36.3185 31.3963 36.1815 31.3963C36.0299 31.3963 35.8783 31.3963 35.7267 31.3934C35.5706 31.3915 35.3943 31.3807 35.3977 31.2045C35.3999 31.0538 35.5886 31.0606 35.7043 31.044C35.9086 31.0156 36.1186 31.0127 36.3264 31.0156C36.8766 31.0234 37.4258 31.0166 37.9681 30.9344C38.4072 30.8668 38.5802 30.5957 38.4027 30.2492C38.0973 29.6531 37.7626 29.0678 37.4729 28.4658C36.9732 27.4302 36.3713 26.4162 36.4274 25.2426L36.4241 25.2406ZM35.3382 26.8244C34.7711 26.8185 34.5016 27.023 34.5802 27.5457C34.6127 27.762 34.6431 28.042 34.2152 28.0195C33.9828 28.0077 33.4696 27.5829 33.492 27.4155C33.5122 27.2589 33.7144 27.3568 33.7896 27.2589C33.5111 27.2795 33.2349 27.1581 32.9721 27.3108C32.7452 27.443 32.4993 27.4743 32.1961 27.3715C32.4836 27.0093 32.9283 26.9702 33.3168 26.839C33.9524 26.6237 34.6307 26.5845 35.2888 26.4593C35.4437 26.4299 35.6739 26.423 35.7009 26.6198C35.7301 26.8361 35.5044 26.8273 35.3393 26.8263L35.3382 26.8244Z" fill="#B9944F"/>
<path d="M21.9302 5.84953C22.3917 6.18037 22.8578 6.50729 23.3373 6.81659C23.6304 7.0055 23.7236 7.17483 23.5585 7.50371C23.2576 8.10176 23.0363 8.73016 22.7893 9.34778C22.7399 9.47209 22.7095 9.6238 22.851 9.71385C22.9791 9.7951 23.0947 9.69819 23.2081 9.63555C23.8561 9.27143 24.5231 8.93277 25.1475 8.54125C25.4383 8.35821 25.5978 8.40128 25.8763 8.55886C26.6186 8.97681 27.2856 9.50635 28.2401 9.85676C27.9437 9.01988 27.7034 8.2711 27.4069 7.53797C27.2867 7.23944 27.3182 7.05836 27.6146 6.87141C28.1323 6.54546 28.6264 6.19114 29.1306 5.84855C29.2822 5.74578 29.4731 5.62049 29.3968 5.45018C29.3215 5.2828 29.0801 5.29749 28.8892 5.30532C28.2648 5.32979 27.6394 5.35524 27.015 5.38656C26.677 5.40418 26.4726 5.35719 26.3884 4.99112C26.2671 4.46746 26.0234 3.96533 25.8123 3.45929C25.7595 3.33205 25.7 3.15782 25.4743 3.1725C25.28 3.18425 25.2531 3.34673 25.2025 3.45831C24.9869 3.92912 24.7129 4.39405 24.613 4.88541C24.5175 5.35621 24.2649 5.43648 23.8033 5.4032C23.2564 5.36405 22.7062 5.35621 22.1571 5.33958C21.9796 5.33468 21.7842 5.37677 21.7034 5.50597C21.5978 5.67531 21.8101 5.76438 21.9291 5.84953H21.9302Z" fill="#B9944F"/>
<path d="M13.2442 27.9999C12.8467 26.932 12.6299 25.8201 12.6782 24.7072C12.7512 23.0031 13.1499 21.344 14.0067 19.7887C15.1936 17.6353 17.005 16.0085 19.4306 14.9074C20.9129 14.2349 22.5176 13.9501 24.1571 13.7054C26.43 13.3667 28.6265 13.6897 30.8275 14.0597C31.1779 14.1185 31.3508 14.0715 31.5316 13.8493C31.8685 13.4343 32.2099 13.0232 32.5524 12.6121C32.9331 12.155 32.85 11.9113 32.2211 11.7586C30.2088 11.2692 28.1919 10.7944 26.2863 10.9579C24.6703 10.9354 23.3026 11.0215 21.9247 11.3259C19.4654 11.8682 17.2554 12.7941 15.3452 14.2281C12.603 16.2865 11.1027 18.9156 10.5333 22.038C10.2178 23.7695 10.5188 25.4139 10.8657 27.072C11.1274 28.319 11.7338 29.4994 12.0067 30.7493C12.366 32.3918 12.3256 33.9843 11.1229 35.4065C11.0376 35.5073 10.8938 35.6267 11.0016 35.7549C11.1173 35.893 11.2992 35.8626 11.4665 35.7941C11.6024 35.7383 11.7529 35.706 11.882 35.6414C13.261 34.9592 13.7607 33.7768 13.9764 32.5386C14.247 30.9862 13.7956 29.4769 13.2442 27.9979V27.9999Z" fill="#B9944F"/>
<path d="M24.7215 26.4856C24.6227 26.5777 24.5295 26.7411 24.3386 26.5062C23.8681 25.9248 23.1528 25.8768 22.4745 26.0785C21.7648 26.2899 21.356 26.7852 21.3695 27.3881C21.283 28.3777 22.1084 29.2234 23.1618 29.2097C24.187 29.1969 25.1281 28.7349 25.0742 27.7297C25.0461 27.21 25.31 27.1522 25.685 27.0896C26.0186 27.0338 26.3319 26.9251 26.6553 26.8547C28.4902 26.4563 30.269 25.9033 32.0545 25.3718C33.8973 24.8227 35.7479 24.3019 37.6311 23.8703C38.0107 23.7832 38.0859 23.607 37.9646 23.329C37.8445 23.0549 37.694 22.7897 37.5548 22.5215C36.872 21.2177 36.2622 19.8846 35.5222 18.6033C35.3324 18.2754 35.1449 18.2373 34.8248 18.4516C34.1421 18.9107 33.4189 19.3277 32.7676 19.818C29.9624 21.9274 27.2437 24.1179 24.7204 26.4876L24.7215 26.4856ZM34.5441 20.56C34.6643 20.6725 34.5205 20.7978 34.4475 20.9133C33.685 22.1231 32.4464 22.9032 31.1853 23.6579C29.6772 24.5603 27.9838 25.177 26.397 25.9708C28.1803 24.4928 30.0522 23.1117 32.1028 21.9205C32.79 21.5212 33.4413 21.0768 34.1106 20.6539C34.2409 20.5717 34.3824 20.4092 34.5441 20.56Z" fill="#B9944F"/>
<path d="M35.058 47.206C35.3185 45.1153 33.5128 43.2125 31.6757 42.1701C31.6184 42.3864 31.6947 42.5303 31.761 42.6888C32.0822 43.4582 32.5336 44.1756 32.9053 44.9244C33.0165 45.1486 33.1512 45.4305 32.9547 45.6194C32.7526 45.8132 32.4213 45.6742 32.1462 45.6419C32.0934 45.636 32.0496 45.591 31.9968 45.5724C30.565 45.0693 29.2725 44.3411 27.9766 43.6275C26.1159 42.6027 24.3685 41.4203 22.3483 40.6177C20.9424 40.0588 19.5117 39.5381 17.9497 39.5547C16.7324 39.5674 15.5185 39.7632 14.3472 40.0833C14.1563 40.1351 13.7644 40.0059 13.7914 40.3583C13.8161 40.6764 14.1979 40.5903 14.4146 40.6931C14.4618 40.7156 14.5247 40.7214 14.5808 40.7224C16.0115 40.7351 17.3601 41.0944 18.6673 41.5397C20.6875 42.2288 22.5774 43.142 24.3562 44.2305C26.1552 45.3316 27.925 46.4768 29.9834 47.209C31.2736 47.668 32.5942 48.0165 33.9923 48.0713C34.6684 48.0977 34.9862 47.7825 35.0569 47.209L35.058 47.206Z" fill="#B9944F"/>
<path d="M104.913 13.8826C105.065 15.4144 104.788 16.9962 104.956 18.5799C105.021 19.1956 105.295 19.5724 105.969 19.6967C106.18 19.7359 106.55 19.7212 106.512 20.0755C106.471 20.4523 106.124 20.3779 105.861 20.3779C104.24 20.3799 102.618 20.376 100.997 20.3701C100.752 20.3701 100.442 20.4377 100.399 20.0853C100.359 19.7525 100.703 19.7828 100.889 19.7202C101.837 19.4031 102.043 19.1496 102.044 18.1952C102.046 17.052 102.029 15.9087 102.056 14.7665C102.065 14.3828 101.97 14.2408 101.535 14.2467C99.9131 14.2683 98.2915 14.2673 96.6711 14.2457C96.241 14.2399 96.131 14.3789 96.1377 14.7635C96.1613 16.0467 96.1579 17.33 96.1512 18.6141C96.1478 19.2328 96.4679 19.546 97.0945 19.7006C97.3426 19.7623 97.8682 19.6556 97.7873 20.1156C97.7166 20.5228 97.2708 20.3731 96.9788 20.375C95.4426 20.3858 93.9064 20.376 92.3713 20.3731C92.2646 20.3731 92.1579 20.374 92.0512 20.3672C91.8446 20.3535 91.6795 20.3075 91.6739 20.0579C91.6694 19.8279 91.821 19.8357 91.9962 19.7887C93.2786 19.4481 93.419 19.2504 93.4168 17.9789C93.4123 15.2715 93.4156 12.5642 93.4168 9.85678C93.4168 8.64502 93.2393 8.415 92.0277 8.08514C91.8334 8.03229 91.6694 7.96866 91.6762 7.72984C91.6852 7.41172 91.9378 7.52722 92.095 7.52624C93.8659 7.51743 95.6369 7.51743 97.4078 7.52135C97.5818 7.52135 97.8379 7.43913 97.8772 7.69949C97.9165 7.95888 97.6649 8.0225 97.465 8.08025C96.2814 8.42479 96.1388 8.59314 96.1355 9.75792C96.1332 10.7406 96.1613 11.7234 96.1411 12.7061C96.1332 13.0624 96.2174 13.1984 96.6262 13.1935C98.2691 13.1749 99.912 13.1769 101.554 13.1935C101.949 13.1974 102.062 13.0751 102.053 12.708C102.03 11.646 102.053 10.5821 102.047 9.51909C102.041 8.61272 101.799 8.33767 100.852 8.10668C100.709 8.07242 100.562 8.02348 100.444 7.94517C100.343 7.87861 100.293 7.74843 100.332 7.62706C100.37 7.50667 100.496 7.51939 100.599 7.51939C102.477 7.51939 104.354 7.51939 106.232 7.52135C106.386 7.52135 106.527 7.52037 106.526 7.73277C106.526 7.92657 106.427 8.02348 106.25 8.08612C104.943 8.55595 104.9 8.6274 104.91 9.92529C104.92 11.2291 104.913 12.5319 104.913 13.8855V13.8826Z" fill="#F5F2ED"/>
<path d="M123.56 10.8961C123.56 12.4739 123.536 14.0527 123.569 15.6305C123.589 16.6064 123.493 17.5803 123.651 18.563C123.763 19.2687 124.173 19.5565 124.801 19.7425C125.004 19.8022 125.306 19.7846 125.226 20.1272C125.161 20.4061 124.913 20.364 124.712 20.365C123.517 20.3719 122.322 20.3699 121.127 20.367C120.897 20.367 120.616 20.4032 120.57 20.0998C120.521 19.7738 120.835 19.8002 121.04 19.7386C122.004 19.4469 122.219 19.2883 122.219 18.2909C122.219 15.3232 122.296 12.3545 122.148 9.38869C122.112 8.68102 121.707 8.27677 120.948 8.11918C120.7 8.06731 120.469 8.04284 120.492 7.74039C120.52 7.36844 120.838 7.52701 121.027 7.52309C121.945 7.50645 122.863 7.54169 123.78 7.50547C124.215 7.48785 124.477 7.64936 124.728 7.94985C126.125 9.62654 127.521 11.3032 128.945 12.9594C129.938 14.1144 130.973 15.2371 132.021 16.4087C132.021 15.1646 132.021 13.9617 132.021 12.7587C132.021 11.7359 132.025 10.712 132.019 9.68919C132.014 8.78575 131.593 8.31299 130.637 8.10842C130.492 8.07709 130.351 8.03011 130.211 7.98509C130.064 7.93712 130.036 7.81282 130.048 7.69242C130.063 7.54071 130.19 7.51624 130.329 7.51624C131.822 7.5182 133.317 7.51918 134.811 7.5182C134.986 7.5182 135.087 7.56909 135.086 7.758C135.084 8.03892 134.863 8.08786 134.656 8.10352C133.931 8.15931 133.527 8.53224 133.428 9.18706C133.381 9.50223 133.402 9.82818 133.404 10.1482C133.404 13.3382 133.414 16.5281 133.4 19.717C133.4 19.9794 133.611 20.4325 133.196 20.4805C132.737 20.5334 132.184 20.7115 131.781 20.2231C131.053 19.3402 130.296 18.4789 129.55 17.6097C128.166 15.9995 126.779 14.3914 125.396 12.7803C124.84 12.1323 124.291 11.4794 123.738 10.8285C123.68 10.851 123.62 10.8726 123.562 10.8951L123.56 10.8961Z" fill="#F5F2ED"/>
<path d="M113.418 7.51744C114.954 7.51744 116.489 7.5331 118.024 7.50765C118.492 7.49982 118.678 7.63098 118.676 8.07634C118.672 8.79674 118.708 9.51812 118.739 10.2385C118.748 10.446 118.699 10.5968 118.458 10.634C118.223 10.6702 118.12 10.5596 118.047 10.356C117.959 10.1142 117.853 9.86951 117.702 9.65809C117.164 8.89853 116.493 8.43556 115.424 8.57749C114.691 8.67439 113.933 8.60979 113.187 8.58923C112.815 8.57944 112.652 8.66949 112.659 9.05416C112.681 10.3168 112.678 11.5805 112.663 12.8431C112.66 13.1681 112.742 13.3159 113.121 13.2992C113.802 13.2689 114.489 13.3208 115.165 13.2562C115.896 13.1857 116.303 12.7061 116.523 12.0757C116.584 11.9025 116.627 11.7028 116.886 11.741C117.15 11.7801 117.116 12.0043 117.117 12.1717C117.121 13.2738 117.114 14.3759 117.109 15.4781C117.109 15.6131 117.148 15.7737 116.935 15.8089C116.737 15.8412 116.606 15.7609 116.54 15.5857C116.16 14.5776 115.381 14.3074 114.293 14.3573C112.672 14.4307 112.669 14.3789 112.668 15.897C112.668 16.7789 112.684 17.6618 112.663 18.5437C112.654 18.9528 112.859 19.2699 113.236 19.2846C114.362 19.3267 115.507 19.3825 116.617 19.2455C117.652 19.1182 118.139 18.2647 118.567 17.4504C118.677 17.2399 118.726 16.9561 119.082 17.0559C119.452 17.1587 119.29 17.4132 119.264 17.6471C119.184 18.3616 119.11 19.0771 119.077 19.7946C119.059 20.1783 118.914 20.2771 118.503 20.3036C115.219 20.514 111.938 20.2409 108.655 20.3055C108.459 20.3094 108.179 20.374 108.132 20.098C108.087 19.8367 108.341 19.7642 108.548 19.7368C109.67 19.591 109.755 19.0615 109.756 18.2363C109.758 15.4095 109.764 12.5828 109.751 9.75499C109.747 8.67145 109.562 8.44633 108.516 8.10472C108.303 8.03523 108.178 7.91581 108.216 7.71124C108.264 7.45577 108.501 7.51646 108.681 7.51646C110.26 7.51254 111.838 7.5145 113.417 7.51646L113.418 7.51744Z" fill="#F5F2ED"/>
<path d="M146.364 20.2733C145.489 20.2733 144.615 20.2752 143.741 20.2713C143.582 20.2713 143.349 20.3261 143.323 20.1078C143.299 19.9023 143.459 19.8308 143.688 19.7917C144.863 19.592 145.053 19.2025 144.578 18.1933C144.315 17.6354 144.117 17.0471 143.925 16.4628C143.829 16.1682 143.683 16.0478 143.344 16.0527C142.214 16.0703 141.082 16.0693 139.952 16.0527C139.644 16.0478 139.488 16.1437 139.394 16.4168C139.129 17.19 138.821 17.9506 138.574 18.7277C138.399 19.2759 138.723 19.6459 139.448 19.7888C139.631 19.825 139.841 19.7672 139.824 20.0579C139.807 20.3398 139.618 20.3946 139.39 20.3731C138.157 20.2596 136.921 20.2938 135.687 20.3046C135.555 20.3056 135.372 20.3291 135.35 20.1186C135.333 19.9444 135.354 19.7956 135.576 19.7565C136.853 19.5294 137.137 18.5016 137.496 17.5806C138.548 14.884 139.556 12.1727 140.588 9.46921C140.779 8.96807 141.063 8.49237 141.195 7.98045C141.354 7.36772 141.82 7.42351 142.278 7.4196C142.776 7.4147 143.26 7.33248 143.492 7.98828C144.153 9.86661 144.845 11.7381 145.611 13.5802C146.309 15.2588 146.864 16.9884 147.665 18.6328C147.94 19.1976 148.285 19.6155 148.949 19.7525C149.159 19.7956 149.406 19.8612 149.349 20.1206C149.296 20.3594 149.039 20.2791 148.861 20.2801C148.029 20.286 147.196 20.2831 146.365 20.2831C146.365 20.2801 146.365 20.2782 146.365 20.2752L146.364 20.2733ZM141.609 10.3932C141.507 10.678 141.439 10.8758 141.367 11.0725C140.92 12.2833 140.482 13.498 140.017 14.7019C139.862 15.1042 139.941 15.2324 140.411 15.2158C141.282 15.1845 142.153 15.1982 143.025 15.2021C143.375 15.2031 143.492 15.1277 143.312 14.7792C143.131 14.4288 143.032 14.0402 142.897 13.6693C142.504 12.6014 142.226 11.4924 141.61 10.3942L141.609 10.3932Z" fill="#F5F2ED"/>
<path d="M75.2819 20.3486C74.4497 20.3486 73.6176 20.3525 72.7855 20.3456C72.5721 20.3437 72.3341 20.3378 72.3431 20.0412C72.3509 19.7671 72.5755 19.8122 72.7608 19.7936C73.6479 19.7035 73.8793 19.4011 73.6311 18.6014C73.4301 17.9554 73.1898 17.3192 72.9719 16.678C72.8462 16.309 72.6193 16.1554 72.1757 16.1691C71.1101 16.2033 70.041 16.1955 68.9753 16.1691C68.6317 16.1602 68.4936 16.2904 68.3914 16.5635C68.1477 17.2183 67.8984 17.8751 67.6682 18.5309C67.4088 19.2709 67.5053 19.6213 68.4778 19.7916C68.6777 19.8269 68.8765 19.8161 68.8608 20.0764C68.8462 20.3074 68.6878 20.3701 68.4666 20.3701C67.2291 20.3701 65.9916 20.374 64.753 20.3818C64.534 20.3828 64.3678 20.3397 64.3588 20.0999C64.3498 19.8738 64.4913 19.8092 64.7148 19.775C65.4638 19.6614 65.8602 19.1896 66.1409 18.5583C67.1583 16.2699 67.9377 13.9002 68.8855 11.5892C69.4144 10.2992 69.8018 8.96114 70.4026 7.69554C70.5126 7.46454 70.6272 7.40679 70.863 7.39211C72.151 7.30793 72.151 7.30402 72.5879 8.45412C73.4649 10.7641 74.2869 13.0956 75.2426 15.3772C75.7501 16.5899 76.0253 17.8927 76.7934 19.0115C77.064 19.406 77.3829 19.6947 77.868 19.7848C78.0881 19.8259 78.2409 19.8826 78.2162 20.1166C78.1892 20.375 77.9624 20.3574 77.7793 20.3583C76.9472 20.3662 76.1151 20.3613 75.283 20.3613C75.283 20.3564 75.283 20.3525 75.283 20.3476L75.2819 20.3486ZM70.7013 10.2404C70.498 10.7112 70.3139 11.0988 70.1623 11.4982C69.7333 12.6326 69.4615 13.817 68.9382 14.9221C68.8046 15.203 68.9944 15.2196 69.2089 15.2196C70.1241 15.2196 71.0393 15.2098 71.9534 15.2284C72.379 15.2372 72.3981 15.0718 72.2847 14.7547C71.7602 13.2845 71.2493 11.8095 70.7013 10.2404Z" fill="#F5F2ED"/>
<path d="M84.3653 7.51557C86.1564 7.51557 87.9475 7.52732 89.7386 7.50676C90.1698 7.50187 90.3439 7.59975 90.3372 8.03238C90.3237 8.89373 90.3697 9.75508 90.381 10.6164C90.3832 10.774 90.4742 11.0011 90.1485 11.004C89.934 11.006 89.8184 10.9551 89.7375 10.7319C89.6162 10.3982 89.4208 10.0849 89.231 9.77661C88.5775 8.71265 87.0997 8.1978 85.824 8.55213C85.4478 8.65686 85.55 8.92309 85.55 9.13549C85.5477 11.4807 85.5601 13.8249 85.5691 16.1702C85.5713 16.8113 85.559 17.4524 85.5915 18.0925C85.6353 18.9549 85.8184 19.6351 86.9301 19.7399C87.1221 19.7575 87.5118 19.7056 87.4343 20.1099C87.3703 20.4446 87.066 20.3418 86.8661 20.335C85.2041 20.2772 83.5421 20.2361 81.879 20.332C81.7948 20.3369 81.7038 20.335 81.6252 20.3115C81.4388 20.2567 81.1311 20.3751 81.0929 20.102C81.0491 19.7927 81.3568 19.8133 81.5758 19.7585C82.7224 19.4687 82.8358 19.4022 82.8582 18.2628C82.9211 15.1767 82.9256 12.0905 82.9672 9.00434C82.9717 8.65588 82.8358 8.53744 82.4865 8.55408C82.253 8.56485 82.0149 8.56387 81.7836 8.53451C80.3832 8.35637 79.568 9.08753 78.9515 10.1309C78.8279 10.3394 78.7033 10.5499 78.6045 10.7691C78.4877 11.0305 78.2664 11.0637 78.0261 11.0119C77.7443 10.9522 77.8341 10.7202 77.8734 10.5665C78.0879 9.71103 78.1519 8.83892 78.2215 7.9668C78.2496 7.61052 78.427 7.50676 78.7976 7.5097C80.6527 7.52536 82.5079 7.51655 84.363 7.51459L84.3653 7.51557Z" fill="#F5F2ED"/>
<path d="M141.876 27.854C141.876 27.0024 141.878 26.1499 141.875 25.2983C141.873 25.0497 141.844 24.8363 142.25 24.8393C142.63 24.8422 142.647 25.0154 142.645 25.2846C142.636 26.466 142.645 27.6475 142.63 28.8289C142.628 28.9943 142.781 29.2654 142.432 29.3036C142.154 29.3349 141.93 29.3055 141.732 29.0305C141.041 28.0674 140.305 27.1346 139.437 26.2125C139.437 27.0592 139.447 27.9068 139.43 28.7525C139.425 28.9679 139.61 29.2958 139.11 29.3144C138.636 29.332 138.676 29.0628 138.678 28.775C138.681 27.6338 138.673 26.4925 138.685 25.3512C138.688 25.1818 138.537 24.9088 138.87 24.8657C139.157 24.8275 139.431 24.8158 139.649 25.1172C140.325 26.05 141.042 26.9554 141.744 27.8716C141.788 27.8657 141.832 27.8589 141.875 27.853L141.876 27.854Z" fill="#F5F2ED"/>
<path d="M144.436 27.025C144.436 26.4436 144.456 25.8602 144.428 25.2798C144.411 24.9304 144.544 24.8198 144.902 24.8491C145.533 24.901 146.169 24.7845 146.801 24.9656C147.868 25.272 148.639 26.3809 148.53 27.346C148.423 28.3014 147.353 29.2283 146.273 29.2997C145.048 29.3807 144.435 28.843 144.435 27.6867C144.435 27.4664 144.435 27.2452 144.435 27.025H144.436ZM145.304 27.07C145.304 27.07 145.307 27.07 145.309 27.07C145.309 27.4704 145.321 27.8717 145.304 28.272C145.293 28.5294 145.402 28.6126 145.667 28.6449C146.803 28.7839 147.678 28.1585 147.745 27.1346C147.807 26.2038 147.135 25.6038 146.019 25.5421C145.506 25.5137 145.199 25.5852 145.296 26.1685C145.346 26.4622 145.305 26.7686 145.305 27.069L145.304 27.07Z" fill="#F5F2ED"/>
<path d="M93.4661 27.0152C93.4661 26.4152 93.4638 25.8152 93.4683 25.2152C93.4694 25.0645 93.4256 24.853 93.6828 24.8599C94.5553 24.8824 95.4503 24.7092 96.2656 25.1956C97.21 25.7604 97.6379 26.6149 97.4256 27.6201C97.2538 28.4316 96.3251 29.1803 95.3436 29.2968C93.4874 29.518 93.4627 29.4985 93.4649 27.7944C93.4649 27.534 93.4649 27.2746 93.4649 27.0142H93.4672L93.4661 27.0152ZM94.2308 27.0886C94.2308 27.4684 94.2521 27.8501 94.2241 28.228C94.2027 28.5108 94.2959 28.6351 94.6002 28.6342C95.2426 28.6322 95.9186 28.6547 96.3352 28.1046C96.7732 27.5271 96.7575 26.8772 96.4374 26.2371C96.1859 25.7349 95.2212 25.363 94.4835 25.5764C93.9377 25.7349 94.3307 26.2234 94.2398 26.5513C94.1926 26.7196 94.2319 26.9095 94.2308 27.0886Z" fill="#F5F2ED"/>
<path d="M112.419 26.2213C112.419 27.1179 112.419 28.0135 112.419 28.9101C112.419 29.1039 112.472 29.3114 112.121 29.3084C111.792 29.3065 111.738 29.1695 111.741 28.9032C111.753 27.7198 111.741 26.5365 111.754 25.3541C111.756 25.1838 111.613 24.9214 111.939 24.8608C112.204 24.8108 112.452 24.8715 112.618 25.0918C113.279 25.9717 113.933 26.8536 114.592 27.7355C114.636 27.7952 114.686 27.852 114.854 28.0575C114.854 27.0092 114.87 26.1244 114.846 25.2415C114.837 24.9087 114.974 24.8451 115.291 24.8441C115.672 24.8441 115.619 25.0692 115.619 25.2865C115.619 26.4699 115.621 27.6533 115.609 28.8367C115.608 28.9913 115.737 29.235 115.455 29.2859C115.19 29.3339 114.951 29.3319 114.746 29.0481C114.054 28.081 113.315 27.1424 112.593 26.1929C112.535 26.2027 112.477 26.2125 112.42 26.2213H112.419Z" fill="#F5F2ED"/>
<path d="M86.9478 29.2998C86.2576 29.3024 85.9124 28.9764 85.9124 28.3219C85.9124 27.3001 85.9079 26.2782 85.9124 25.2563C85.9124 25.0929 85.8327 24.8658 86.1449 24.857C87.2735 24.8247 88.3987 24.7601 89.2712 25.6596C89.9349 26.3438 90.0517 27.1307 89.7103 27.9294C89.3554 28.7585 88.6345 29.2401 87.6508 29.2978C87.4172 29.3115 87.1825 29.2998 86.9478 29.2998ZM86.6749 27.0573H86.6727C86.6727 27.4586 86.6704 27.859 86.6727 28.2603C86.6727 28.4149 86.6435 28.5608 86.8939 28.6175C87.4778 28.7487 88.4672 28.4981 88.7704 28.1056C89.1129 27.6642 89.1207 26.6452 88.7872 26.1646C88.4638 25.6997 87.5037 25.3483 86.9085 25.5783C86.3773 25.7829 86.7917 26.285 86.6817 26.6384C86.6412 26.7676 86.6749 26.9173 86.6749 27.0573Z" fill="#F5F2ED"/>
<path d="M118.923 24.7326C119.49 24.6689 119.91 25.0027 120.284 25.3913C120.446 25.5596 120.648 25.8376 120.389 26.005C120.21 26.1205 119.857 26.1645 119.679 25.8435C119.471 25.4667 119.106 25.4109 118.698 25.4471C118.36 25.4774 118.119 25.6409 118.068 25.9433C118.014 26.2546 118.214 26.4758 118.522 26.5854C118.738 26.6618 118.964 26.7127 119.186 26.7724C120.256 27.0602 120.719 27.6562 120.551 28.3845C120.37 29.1695 119.072 29.6178 118.253 29.3359C117.759 29.1656 117.38 28.9258 117.183 28.4814C117.126 28.3532 116.913 28.1045 117.185 28.0233C117.406 27.9577 117.771 27.8138 117.904 28.1564C118.138 28.7623 118.655 28.731 119.166 28.6938C119.422 28.6752 119.663 28.5636 119.717 28.2758C119.772 27.9822 119.658 27.7551 119.371 27.6367C119.045 27.5026 118.707 27.39 118.369 27.2833C117.419 26.9838 117.164 26.5541 117.228 25.866C117.289 25.1916 118.03 24.7277 118.921 24.7326H118.923Z" fill="#F5F2ED"/>
<path d="M101.916 42.2257C101.916 41.3223 101.916 40.6029 101.916 39.8834C101.916 39.6495 101.852 39.4146 102.275 39.4126C102.713 39.4097 102.683 39.6378 102.68 39.9108C102.672 40.9317 102.677 41.9526 102.668 42.9745C102.667 43.1605 102.754 43.4052 102.469 43.4835C102.186 43.5608 101.975 43.4267 101.816 43.2143C101.266 42.4822 100.723 41.7461 100.17 41.0159C100.078 40.8945 100.033 40.7213 99.7606 40.6694C99.7606 41.4534 99.7628 42.2189 99.7606 42.9833C99.7606 43.2075 99.8718 43.4913 99.4495 43.505C99.0329 43.5177 99.1025 43.2378 99.1014 43.0078C99.098 42.0065 99.0913 41.0051 99.1093 40.0048C99.1126 39.8149 98.9532 39.5281 99.2878 39.4459C99.5854 39.3715 99.8516 39.5027 99.9964 39.7444C100.395 40.4071 100.96 40.9552 101.402 41.5875C101.526 41.7637 101.673 41.9262 101.916 42.2267V42.2257Z" fill="#F5F2ED"/>
<path d="M64.7676 29.2575C65.3257 27.894 65.8591 26.5815 66.4015 25.2728C66.5104 25.0105 66.6508 24.8274 67.0416 24.8314C67.4458 24.8353 67.4728 25.0829 67.5649 25.3022C68.0556 26.4806 68.534 27.663 69.0202 28.8425C69.0854 28.9991 69.2628 29.2125 69.0113 29.2781C68.7844 29.3368 68.342 29.4337 68.3038 29.097C68.1836 28.0477 67.402 28.2278 66.6732 28.2073C66.1814 28.1936 65.8827 28.2807 65.7715 28.7985C65.6558 29.3329 65.5963 29.329 64.7676 29.2556V29.2575ZM66.9764 25.7916C66.7923 26.3123 66.744 26.7126 66.5284 27.0014C66.1017 27.573 66.3431 27.6396 66.9214 27.6278C67.694 27.6131 67.6951 27.6317 67.4346 26.9554C67.3066 26.6226 67.1741 26.2917 66.9764 25.7916Z" fill="#F5F2ED"/>
<path d="M107.298 27.0652C107.298 26.4652 107.312 25.8642 107.293 25.2642C107.284 24.9617 107.372 24.8345 107.719 24.8452C108.421 24.8668 109.124 24.8531 109.826 24.8491C110.058 24.8482 110.245 24.8658 110.24 25.1604C110.236 25.4531 110.084 25.5412 109.8 25.5372C109.396 25.5324 108.992 25.5519 108.587 25.549C107.873 25.5451 108.262 26.0531 108.182 26.333C108.087 26.6658 108.258 26.8058 108.628 26.7793C108.946 26.7568 109.266 26.7813 109.586 26.7774C109.781 26.7745 109.925 26.8195 109.925 27.0338C109.925 27.2345 109.87 27.3862 109.603 27.3764C109.326 27.3666 109.047 27.396 108.773 27.3676C108.313 27.3197 108.188 27.4606 108.156 27.9177C108.113 28.5353 108.372 28.6714 108.938 28.6293C109.254 28.6058 109.576 28.6401 109.894 28.6401C110.176 28.6401 110.239 28.781 110.241 29.0218C110.244 29.29 110.084 29.3017 109.875 29.3017C109.152 29.2988 108.428 29.2919 107.705 29.3056C107.405 29.3115 107.287 29.2107 107.294 28.9249C107.308 28.3053 107.298 27.6847 107.298 27.0642H107.296L107.298 27.0652Z" fill="#F5F2ED"/>
<path d="M76.3232 48.1984C76.3232 47.6581 76.3255 47.1178 76.3232 46.5775C76.3232 46.3661 76.3232 46.1557 76.6366 46.1674C77.3889 46.1938 78.1492 46.048 78.8757 46.417C79.7775 46.8751 80.2031 47.6748 80.0088 48.7241C79.874 49.4533 78.9701 50.1786 78.1076 50.251C76.924 50.3495 76.333 49.8458 76.3345 48.7397C76.3345 48.5596 76.3345 48.3795 76.3345 48.1994C76.3311 48.1994 76.3277 48.1994 76.3244 48.1994L76.3232 48.1984ZM77.0857 48.2072C77.0857 48.2072 77.0835 48.2072 77.0824 48.2072C77.0824 48.586 77.088 48.9648 77.0801 49.3436C77.0768 49.5316 77.1262 49.6432 77.3575 49.649C77.9605 49.6657 78.5579 49.6578 78.9622 49.1479C79.3945 48.6027 79.4383 48.0066 79.0857 47.4173C78.7713 46.8917 78.2188 46.7821 77.6225 46.7537C77.2205 46.7351 77.0307 46.8369 77.0779 47.251C77.1138 47.5661 77.0846 47.8882 77.0846 48.2072H77.0857Z" fill="#F5F2ED"/>
<path d="M136.115 26.5258C136.115 26.0854 136.128 25.6439 136.111 25.2045C136.101 24.9255 136.197 24.8159 136.51 24.8139C136.845 24.812 136.891 24.9676 136.889 25.223C136.882 26.104 136.916 26.9869 136.882 27.8668C136.844 28.8574 135.847 29.5709 134.803 29.3996C133.482 29.1833 133.062 28.688 133.08 27.395C133.09 26.6942 133.086 25.9934 133.073 25.2925C133.068 25.0087 133.069 24.7679 133.476 24.7581C133.898 24.7474 133.816 25.0244 133.817 25.2514C133.82 26.0129 133.801 26.7735 133.817 27.535C133.837 28.4805 134.796 28.9914 135.684 28.5275C135.946 28.3914 136.136 28.183 136.117 27.8482C136.092 27.4087 136.111 26.9673 136.111 26.5268H136.113L136.115 26.5258Z" fill="#F5F2ED"/>
<path d="M66.9338 50.3372C65.7132 50.3626 64.6677 49.4249 64.6699 48.2406C64.6733 47.0259 65.5986 46.1479 66.8137 46.0862C68.0298 46.0245 69.1146 47.0748 69.1236 48.2611C69.1315 49.3407 68.1062 50.3127 66.9338 50.3372ZM66.8968 46.7547C65.9793 46.7508 65.456 47.2852 65.4717 48.2102C65.4863 49.1508 65.9894 49.6618 66.908 49.6706C67.7614 49.6784 68.369 49.1225 68.3544 48.267C68.3386 47.3361 67.8322 46.7107 66.8968 46.7547Z" fill="#F5F2ED"/>
<path d="M94.2555 47.4576C94.2555 48.2309 94.2634 49.0051 94.2499 49.7783C94.2465 49.9673 94.3678 50.2384 93.9624 50.254C93.5548 50.2707 93.5919 50.0338 93.593 49.7872C93.5975 48.7252 93.593 47.6631 93.602 46.6011C93.6031 46.422 93.4885 46.1705 93.8097 46.1147C94.0534 46.0726 94.2241 46.145 94.3892 46.3643C95.0427 47.2295 95.7356 48.0674 96.5014 49.0266C96.5014 48.1114 96.5014 47.3255 96.5014 46.5395C96.5014 46.3418 96.4644 46.1303 96.799 46.1206C97.1269 46.1117 97.1842 46.2723 97.1831 46.5307C97.1786 47.6123 97.1909 48.6948 97.1797 49.7764C97.1786 49.9418 97.3223 50.2061 96.9664 50.2423C96.7204 50.2677 96.5542 50.2129 96.3914 49.9868C95.7614 49.1157 95.0888 48.2729 94.433 47.4194C94.3734 47.4322 94.3139 47.4449 94.2544 47.4576H94.2555Z" fill="#F5F2ED"/>
<path d="M70.6314 43.51C69.3411 43.5071 68.4933 42.7064 68.4922 41.4907C68.4922 40.2222 69.3288 39.4157 70.6415 39.4206C71.9217 39.4254 72.8616 40.2809 72.8133 41.4937C72.7695 42.5811 72.2732 43.5629 70.6303 43.51H70.6314ZM70.7011 42.9315C71.5758 42.9354 72.0778 42.4108 72.0834 41.4878C72.089 40.5804 71.5208 40.001 70.6326 40.0078C69.8128 40.0137 69.2592 40.5804 69.2536 41.4203C69.2468 42.402 69.7499 42.9276 70.6999 42.9315H70.7011Z" fill="#F5F2ED"/>
<path d="M98.8423 27.0621C98.8423 26.4612 98.8569 25.8592 98.8367 25.2592C98.8266 24.9538 98.9153 24.8324 99.2634 24.8461C99.9237 24.8706 100.585 24.8589 101.245 24.8491C101.518 24.8452 101.678 24.8823 101.665 25.2034C101.653 25.5225 101.482 25.5577 101.215 25.5489C100.896 25.5381 100.573 25.5753 100.257 25.5411C99.7205 25.4833 99.5745 25.6811 99.588 26.1763C99.6003 26.6256 99.6901 26.8497 100.219 26.7851C100.512 26.7489 100.815 26.7851 101.113 26.7793C101.34 26.7744 101.398 26.8801 101.397 27.0749C101.396 27.2648 101.35 27.3803 101.117 27.3763C100.755 27.3705 100.39 27.4028 100.03 27.3705C99.4667 27.3205 99.6115 27.6974 99.6093 27.9646C99.607 28.2504 99.4442 28.6488 100.036 28.6214C100.483 28.6008 100.931 28.6233 101.379 28.6233C101.64 28.6233 101.768 28.7261 101.768 28.9835C101.768 29.2645 101.599 29.3075 101.353 29.3056C100.65 29.2997 99.9462 29.2928 99.2432 29.3085C98.9389 29.3154 98.8322 29.2116 98.8389 28.9268C98.8547 28.3062 98.8434 27.6847 98.8434 27.0631H98.8401L98.8423 27.0621Z" fill="#F5F2ED"/>
<path d="M81.4256 27.0532C81.4256 26.4523 81.4424 25.8503 81.4189 25.2503C81.4065 24.9312 81.5211 24.8363 81.8557 24.848C82.516 24.8705 83.1774 24.8627 83.8377 24.848C84.1274 24.8421 84.2588 24.9087 84.2476 25.2141C84.2375 25.4989 84.0982 25.5449 83.8467 25.5351C83.5064 25.5214 83.1639 25.542 82.8248 25.5224C82.3543 25.495 82.1712 25.6369 82.1679 26.1263C82.1634 26.6558 82.3172 26.8683 82.8854 26.7841C83.073 26.7567 83.2695 26.7704 83.4604 26.7841C83.6872 26.7997 83.9983 26.6784 83.9837 27.0983C83.9702 27.4761 83.6974 27.3616 83.4874 27.3733C83.3178 27.3831 83.146 27.3733 82.9764 27.3743C82.233 27.3772 81.9747 27.7296 82.1892 28.4069C82.2588 28.6262 82.4228 28.6086 82.5856 28.6125C83.0112 28.6223 83.4391 28.6389 83.8636 28.6213C84.1634 28.6086 84.2936 28.7153 84.315 28.9893C84.3408 29.3339 84.1061 29.3123 83.8579 29.3094C83.1976 29.3025 82.5351 29.2849 81.8759 29.3123C81.4919 29.328 81.4099 29.1821 81.4211 28.8591C81.4424 28.2591 81.4278 27.6572 81.4267 27.0562L81.4256 27.0532Z" fill="#F5F2ED"/>
<path d="M107.301 41.4653C108.295 41.4633 108.316 41.5034 108.015 42.3863C107.774 43.093 107.177 43.3857 106.491 43.4865C105.642 43.6128 104.873 43.3543 104.359 42.6858C103.754 41.8989 103.882 40.601 104.567 39.905C105.129 39.3315 106.508 39.2375 107.366 39.7063C107.536 39.7993 107.71 39.8933 107.774 40.0685C107.836 40.2369 108.16 40.4062 107.91 40.5726C107.71 40.7057 107.451 40.7223 107.192 40.4669C106.458 39.7406 105.545 39.8404 104.937 40.6548C104.549 41.1755 104.614 41.9351 105.107 42.5214C105.532 43.0274 106.123 42.9481 106.688 42.8698C106.914 42.8385 107.078 42.6574 107.195 42.447C107.358 42.1543 107.335 42.0124 106.939 41.9821C106.738 41.9674 106.369 42.1377 106.398 41.7031C106.426 41.2724 106.784 41.5377 106.984 41.4711C107.079 41.4398 107.195 41.4653 107.302 41.4653H107.301Z" fill="#F5F2ED"/>
<path d="M122.154 27.0406C122.154 26.4592 122.169 25.8778 122.147 25.2974C122.134 24.9773 122.209 24.8266 122.595 24.8452C123.211 24.8735 123.831 24.854 124.449 24.851C124.694 24.8501 124.926 24.8364 124.918 25.175C124.91 25.5176 124.694 25.5528 124.404 25.5401C124.128 25.5284 123.85 25.5382 123.573 25.546C122.99 25.5636 122.662 26.1352 122.933 26.6422C123.023 26.8096 123.178 26.7724 123.317 26.7763C123.616 26.7842 123.914 26.7695 124.212 26.7822C124.423 26.791 124.698 26.6922 124.709 27.0641C124.722 27.483 124.411 27.3578 124.183 27.3724C124.013 27.3832 123.838 27.3979 123.672 27.3724C123.066 27.2785 122.847 27.4811 122.892 28.0762C122.923 28.4765 122.996 28.6664 123.464 28.6253C123.822 28.594 124.188 28.6439 124.55 28.6302C124.841 28.6194 124.969 28.6928 124.97 28.9963C124.971 29.2968 124.81 29.3095 124.572 29.3066C123.912 29.2987 123.251 29.2889 122.59 29.3085C122.261 29.3183 122.136 29.2263 122.148 28.9043C122.17 28.2837 122.155 27.6622 122.155 27.0406H122.152H122.154Z" fill="#F5F2ED"/>
<path d="M74.1321 41.3781C74.1321 40.8378 74.1456 40.2965 74.1265 39.7572C74.1175 39.491 74.2175 39.4019 74.4915 39.4146C74.8531 39.4303 75.2158 39.4283 75.5774 39.4176C76.1467 39.4009 76.6734 39.5311 76.8531 40.0783C77.026 40.6049 77.1248 41.1912 76.4982 41.5758C76.259 41.7226 76.3455 41.8587 76.4533 42.0241C76.651 42.3266 76.8565 42.6271 77.0238 42.9442C77.0956 43.0793 77.3584 43.2594 77.1372 43.3847C76.9205 43.507 76.5926 43.5667 76.4084 43.2672C76.2074 42.9393 75.9951 42.6114 75.8503 42.261C75.7032 41.9047 75.4235 41.9165 75.1237 41.9439C74.7408 41.9791 74.9047 42.2698 74.8823 42.4587C74.8565 42.676 74.8609 42.8992 74.8789 43.1184C74.9025 43.4209 74.6835 43.4307 74.4679 43.4414C74.2355 43.4532 74.1232 43.3553 74.1277 43.1204C74.1378 42.54 74.131 41.9595 74.131 41.3791H74.1333L74.1321 41.3781ZM74.9047 40.5324C74.8407 41.0629 74.7891 41.3967 75.4449 41.3673C76.0154 41.3419 76.1917 41.0394 76.2669 40.6381C76.3354 40.2672 75.8806 39.999 75.3225 39.9706C74.6611 39.9363 74.9441 40.3934 74.9047 40.5324Z" fill="#F5F2ED"/>
<path d="M115.622 41.4075C115.622 40.8672 115.62 40.3269 115.622 39.7866C115.622 39.6153 115.566 39.4186 115.883 39.4196C116.15 39.4205 116.252 39.4959 116.262 39.7612C116.278 40.1938 116.046 40.7967 116.369 41.0131C116.698 41.2343 117.308 41.064 117.788 41.1168C118.338 41.1775 118.51 40.969 118.442 40.4816C118.409 40.2457 118.445 40.0019 118.436 39.7621C118.427 39.539 118.522 39.4293 118.767 39.4293C119.013 39.4293 119.187 39.49 119.187 39.7582C119.19 40.8985 119.191 42.0388 119.198 43.1791C119.199 43.4317 119.03 43.4679 118.82 43.4757C118.561 43.4855 118.426 43.3974 118.438 43.1282C118.455 42.769 118.433 42.4078 118.446 42.0486C118.456 41.7932 118.358 41.6747 118.078 41.6972C117.951 41.708 117.822 41.6923 117.695 41.7021C117.235 41.7364 116.653 41.5142 116.346 41.7981C116.064 42.0594 116.27 42.5968 116.263 43.0128C116.259 43.2594 116.237 43.4483 115.905 43.4473C115.562 43.4473 115.623 43.2222 115.623 43.0284C115.623 42.4881 115.623 41.9478 115.623 41.4075H115.622Z" fill="#F5F2ED"/>
<path d="M146.693 43.4375C146.149 43.5971 145.863 43.4228 145.671 43.0489C145.524 42.7621 145.357 42.4842 145.212 42.1954C145.049 41.8704 144.738 41.9634 144.486 41.9879C144.204 42.0153 144.317 42.2659 144.307 42.4274C144.291 42.6868 144.295 42.9481 144.303 43.2085C144.31 43.459 144.155 43.4992 143.934 43.5051C143.691 43.5119 143.653 43.3807 143.653 43.2016C143.653 42.0594 143.659 40.9181 143.652 39.7758C143.651 39.5027 143.794 39.4332 144.05 39.442C144.39 39.4538 144.738 39.4088 145.071 39.4567C145.566 39.5291 146.107 39.5859 146.265 40.1703C146.418 40.7301 146.508 41.2949 145.889 41.6698C145.641 41.8205 145.779 41.8949 145.867 42.0368C146.143 42.4812 146.399 42.9364 146.691 43.4365L146.693 43.4375ZM144.305 40.6949C144.305 41.2065 144.457 41.4629 144.761 41.4642C145.335 41.4662 145.71 41.1706 145.674 40.6929C145.634 40.1575 145.213 40.0479 144.733 40.0195C144.058 39.9794 144.39 40.4629 144.305 40.6949Z" fill="#F5F2ED"/>
<path d="M103.071 48.1301C103.071 47.5888 103.086 47.0465 103.065 46.5053C103.052 46.1734 103.165 46.0296 103.536 46.0423C104.111 46.0638 104.688 46.0599 105.264 46.0491C105.534 46.0442 105.649 46.1353 105.651 46.3946C105.655 46.6423 105.579 46.7715 105.288 46.7539C105.034 46.7382 104.772 46.7813 104.522 46.7451C103.949 46.6628 103.788 46.8694 103.817 47.4009C103.839 47.7914 103.981 47.8815 104.346 47.856C104.621 47.8364 104.901 47.854 105.178 47.8619C105.379 47.8668 105.492 47.9607 105.495 48.1604C105.497 48.3669 105.384 48.4443 105.177 48.4413C104.943 48.4374 104.703 48.4697 104.474 48.4364C103.909 48.3542 103.821 48.6038 103.815 49.0766C103.808 49.567 103.98 49.7148 104.472 49.657C104.766 49.6227 105.068 49.658 105.367 49.6492C105.613 49.6413 105.765 49.6805 105.76 49.9712C105.756 50.2394 105.607 50.2619 105.396 50.2521C105.375 50.2511 105.354 50.2521 105.332 50.2521C104.596 50.1993 103.604 50.5487 103.194 50.1053C102.837 49.7187 103.12 48.8094 103.12 48.131C103.103 48.131 103.087 48.131 103.071 48.131V48.1301Z" fill="#F5F2ED"/>
<path d="M133.676 41.0678C133.676 41.3878 133.679 41.7079 133.676 42.028C133.668 42.949 133.171 43.4502 132.22 43.5021C131.087 43.5637 130.305 43.0841 130.238 42.1954C130.177 41.3996 130.229 40.596 130.22 39.7953C130.218 39.5379 130.344 39.4361 130.604 39.4322C130.872 39.4283 130.988 39.5389 130.986 39.7924C130.98 40.4922 130.986 41.1931 130.988 41.8929C130.991 42.6975 131.21 42.9148 132.001 42.9099C132.728 42.905 132.907 42.7122 132.91 41.9301C132.912 41.2498 132.917 40.5696 132.908 39.8893C132.905 39.6152 132.944 39.4253 133.314 39.4322C133.655 39.439 133.682 39.6211 133.676 39.8658C133.669 40.2661 133.674 40.6665 133.674 41.0658H133.676V41.0678Z" fill="#F5F2ED"/>
<path d="M89.4695 48.1398C89.4695 47.5789 89.4796 47.0171 89.4661 46.4572C89.4583 46.144 89.5919 46.0344 89.9232 46.0461C90.5195 46.0667 91.1169 46.0589 91.7132 46.0549C91.9726 46.053 92.1837 46.0814 92.1781 46.3995C92.1725 46.7098 91.9614 46.7509 91.7053 46.7518C91.4706 46.7518 91.2359 46.7538 91.0024 46.7538C90.1792 46.7538 90.0782 46.881 90.1949 47.6494C90.2275 47.8667 90.3578 47.8471 90.5015 47.8501C90.8429 47.8579 91.1832 47.8618 91.5245 47.8599C91.757 47.8589 91.7974 47.9842 91.8064 48.1692C91.8165 48.3865 91.7076 48.4471 91.501 48.4422C91.2236 48.4364 90.9451 48.4618 90.67 48.4383C90.3106 48.409 90.2129 48.5186 90.2163 48.87C90.2241 49.6197 90.1927 49.6217 91.0259 49.6158C91.3022 49.6139 91.5796 49.6021 91.8558 49.5904C92.1029 49.5806 92.1905 49.6902 92.1871 49.9183C92.1837 50.1268 92.1523 50.2589 91.8805 50.254C91.1989 50.2413 90.5161 50.2374 89.8345 50.2491C89.5369 50.255 89.4796 50.115 89.4819 49.8811C89.4886 49.3007 89.4841 48.7192 89.4841 48.1388C89.4796 48.1388 89.4751 48.1388 89.4718 48.1388L89.4695 48.1398Z" fill="#F5F2ED"/>
<path d="M99.9745 50.3048C99.5568 50.3273 99.0436 50.0983 98.7561 49.5306C98.6899 49.4004 98.5079 49.1723 98.7977 49.0793C98.9785 49.0216 99.2424 48.9609 99.3412 49.2271C99.4029 49.3945 99.5119 49.4904 99.6736 49.5658C100.151 49.789 100.863 49.6764 100.969 49.3152C101.14 48.7358 100.644 48.6125 100.222 48.4901C99.714 48.3433 99.1784 48.2581 98.8819 47.7756C98.6449 47.3909 98.6843 47.0033 98.9425 46.646C99.2693 46.1919 99.769 46.0206 100.32 46.0529C100.745 46.0783 101.139 46.2437 101.419 46.5765C101.565 46.7508 101.776 46.973 101.594 47.155C101.402 47.3469 101.074 47.2676 100.926 47.0503C100.673 46.6813 100.316 46.7449 99.9588 46.7557C99.6871 46.7645 99.531 46.9084 99.4816 47.156C99.4299 47.4154 99.559 47.5876 99.8027 47.6767C100.097 47.7844 100.402 47.8666 100.7 47.9664C101.466 48.2248 101.875 48.7142 101.772 49.2467C101.651 49.8751 101.003 50.3146 99.9734 50.3019L99.9745 50.3048Z" fill="#F5F2ED"/>
<path d="M81.4259 48.1672C81.4259 47.5868 81.4371 47.0054 81.4214 46.4259C81.4135 46.146 81.5056 46.0334 81.82 46.0461C82.4152 46.0706 83.0126 46.0716 83.6089 46.0608C83.8773 46.0559 83.9963 46.1254 83.9885 46.3956C83.9817 46.6442 83.8975 46.7656 83.6168 46.7548C83.2978 46.743 82.9767 46.7665 82.6589 46.7479C82.3231 46.7284 82.1996 46.8155 82.1648 47.1688C82.1097 47.716 82.2748 47.9 82.87 47.8736C83.1451 47.8618 83.7145 47.5829 83.7044 48.1545C83.6943 48.7085 83.1496 48.4002 82.8554 48.4246C82.2535 48.4745 81.9301 48.9522 82.1782 49.4974C82.2602 49.6785 82.4118 49.6423 82.5511 49.6452C82.934 49.6511 83.3181 49.656 83.701 49.6462C83.9323 49.6403 84.0749 49.7108 84.0716 49.9437C84.0693 50.1659 83.9435 50.2569 83.7055 50.253C83.0665 50.2442 82.4275 50.2364 81.7886 50.2511C81.5101 50.2569 81.4135 50.1679 81.4202 49.9075C81.4348 49.3271 81.4247 48.7466 81.4247 48.1662L81.4259 48.1672Z" fill="#F5F2ED"/>
<path d="M103.198 27.0739C103.198 26.4729 103.209 25.8719 103.192 25.2709C103.184 24.9802 103.247 24.8324 103.608 24.8451C104.267 24.8696 104.928 24.8578 105.59 24.8481C105.861 24.8441 106.028 24.8823 106.019 25.2024C106.01 25.5107 105.853 25.5724 105.577 25.5596C105.344 25.5489 105.109 25.5587 104.874 25.5596C104.063 25.5626 104.093 25.5636 104.063 26.3407C104.047 26.789 104.182 26.9652 104.668 26.9026C104.918 26.8703 105.179 26.9006 105.433 26.8977C105.621 26.8957 105.774 26.9143 105.752 27.1531C105.736 27.3362 105.756 27.4928 105.462 27.5114C105.01 27.5398 104.408 27.2814 104.147 27.6621C103.94 27.9616 104.059 28.4775 104.085 28.8935C104.107 29.2615 103.926 29.3143 103.594 29.3241C103.212 29.3359 103.191 29.147 103.195 28.8768C103.206 28.2758 103.199 27.6748 103.199 27.0739H103.198Z" fill="#F5F2ED"/>
<path d="M148.022 41.475C148.022 40.9347 148.03 40.3935 148.019 39.8532C148.013 39.5948 148.071 39.4293 148.396 39.4352C148.971 39.445 149.546 39.444 150.121 39.4352C150.391 39.4313 150.521 39.5478 150.511 39.7905C150.498 40.0538 150.285 40.0303 150.09 40.0274C149.876 40.0235 149.661 40.045 149.452 40.0156C148.931 39.9422 148.765 40.1204 148.767 40.6254C148.769 41.0493 148.916 41.1471 149.311 41.107C149.5 41.0874 149.694 41.1129 149.886 41.107C150.158 41.0982 150.33 41.1579 150.327 41.4692C150.322 41.8049 150.099 41.8 149.854 41.799C149.704 41.799 149.553 41.8166 149.407 41.7971C148.916 41.7315 148.745 41.8969 148.765 42.3814C148.78 42.7925 148.881 42.9628 149.337 42.9119C149.631 42.8796 149.932 42.9158 150.231 42.908C150.456 42.9021 150.588 42.9501 150.588 43.2016C150.588 43.4405 150.487 43.5129 150.247 43.509C149.629 43.4982 149.012 43.4933 148.394 43.5061C148.115 43.5119 148.016 43.4121 148.021 43.1556C148.032 42.5958 148.025 42.0349 148.022 41.4741V41.475Z" fill="#F5F2ED"/>
<path d="M120.75 41.4241C120.75 40.8828 120.757 40.3415 120.747 39.8002C120.742 39.5722 120.768 39.4165 121.079 39.4244C121.697 39.439 122.316 39.4283 122.934 39.4273C123.148 39.4273 123.299 39.4684 123.303 39.7229C123.305 39.9754 123.174 40.0234 122.947 40.0156C122.627 40.0058 122.304 40.0381 121.988 40.0067C121.5 39.9588 121.378 40.1516 121.367 40.5891C121.355 41.0355 121.526 41.1519 121.955 41.1099C122.208 41.0844 122.467 41.1148 122.722 41.1069C122.976 41.0991 123.046 41.2146 123.046 41.4368C123.046 41.6531 123.012 41.7774 122.731 41.7471C122.522 41.7245 122.305 41.7578 122.093 41.7686C121.415 41.8019 121.235 42.0515 121.38 42.6877C121.433 42.9197 121.588 42.906 121.756 42.9079C122.183 42.9118 122.61 42.9138 123.035 42.9109C123.23 42.9089 123.382 42.9637 123.39 43.1653C123.398 43.3729 123.293 43.5011 123.046 43.5001C122.384 43.4962 121.723 43.4893 121.062 43.5001C120.739 43.506 120.741 43.322 120.742 43.1076C120.747 42.5467 120.743 41.9849 120.743 41.4241H120.748H120.75Z" fill="#F5F2ED"/>
<path d="M138.801 41.0385C138.801 40.6176 138.804 40.1977 138.8 39.7768C138.798 39.5722 138.836 39.4176 139.11 39.4391C139.337 39.4567 139.45 39.5458 139.446 39.7787C139.434 40.459 139.429 41.1402 139.442 41.8215C139.459 42.628 139.721 42.9021 140.439 42.9089C141.232 42.9168 141.481 42.6828 141.489 41.9076C141.496 41.2068 141.495 40.506 141.493 39.8052C141.493 39.5967 141.473 39.4078 141.807 39.4185C142.093 39.4273 142.174 39.5507 142.172 39.7895C142.164 40.6097 142.199 41.4319 142.149 42.2502C142.095 43.1165 141.405 43.553 140.287 43.5041C139.375 43.4639 138.81 42.9403 138.8 42.12C138.795 41.7598 138.8 41.3987 138.8 41.0385H138.801Z" fill="#F5F2ED"/>
<path d="M128.813 27.0611C128.813 26.4611 128.826 25.8611 128.807 25.2621C128.797 24.9596 128.882 24.8334 129.232 24.8461C129.868 24.8706 130.507 24.8608 131.145 24.849C131.425 24.8441 131.508 24.9489 131.507 25.2024C131.507 25.4637 131.405 25.5626 131.131 25.545C130.898 25.5303 130.663 25.542 130.429 25.543C129.593 25.545 129.36 25.8689 129.611 26.651C129.684 26.8781 129.844 26.9026 130.048 26.8996C130.367 26.8947 130.686 26.9026 131.005 26.8986C131.213 26.8967 131.373 26.9065 131.369 27.1776C131.364 27.4517 131.236 27.5163 130.976 27.5016C130.7 27.4859 130.421 27.5241 130.147 27.4986C129.681 27.4546 129.542 27.6523 129.585 28.0585C129.616 28.3355 129.589 28.6184 129.608 28.8974C129.627 29.1881 129.543 29.3339 129.188 29.3261C128.866 29.3182 128.8 29.1861 128.805 28.9218C128.817 28.3022 128.809 27.6827 128.809 27.0621L128.813 27.0611Z" fill="#F5F2ED"/>
<path d="M74.6423 27.0719C74.6423 26.4709 74.6659 25.8699 74.6333 25.2699C74.6143 24.9058 74.776 24.8451 75.114 24.8402C75.4565 24.8353 75.5452 24.946 75.5373 25.2553C75.516 26.2155 75.5519 27.1776 75.5149 28.1378C75.5003 28.5215 75.6328 28.6341 76.0101 28.6194C76.3717 28.6057 76.7344 28.637 77.096 28.6292C77.3633 28.6243 77.4756 28.7192 77.4846 28.9767C77.4947 29.2576 77.3476 29.3055 77.0938 29.3026C76.4121 29.2938 75.7305 29.287 75.0488 29.3085C74.685 29.3202 74.6322 29.1558 74.639 28.8719C74.6536 28.2719 74.6435 27.6709 74.6435 27.07H74.6412L74.6423 27.0719Z" fill="#F5F2ED"/>
<path d="M70.4207 48.1946C70.4207 47.6935 70.4499 47.1913 70.4117 46.6931C70.3792 46.2527 70.5712 46.1362 71.0035 46.1577C71.5347 46.1851 72.0681 46.1646 72.6015 46.1606C72.8182 46.1587 72.9721 46.1988 72.9676 46.4543C72.9631 46.6882 72.9115 46.8439 72.6139 46.8301C72.3803 46.8194 72.1456 46.8311 71.9109 46.837C71.1473 46.8556 71.0866 46.9447 71.172 47.6788C71.2012 47.9333 71.3258 47.9685 71.5426 47.9636C71.8199 47.9577 72.0962 47.9656 72.3736 47.9656C72.5588 47.9656 72.7093 47.99 72.7104 48.2201C72.7116 48.4334 72.652 48.5431 72.3949 48.5695C71.994 48.6106 71.4538 48.3541 71.227 48.7212C71.0496 49.008 71.1697 49.4631 71.181 49.8429C71.1888 50.1131 71.1709 50.3176 70.7924 50.3029C70.4252 50.2892 70.4106 50.0788 70.4162 49.8155C70.4275 49.2752 70.4196 48.7339 70.4196 48.1936L70.4207 48.1946Z" fill="#F5F2ED"/>
<path d="M64.9109 41.4839C64.9109 40.9622 64.93 40.4405 64.9042 39.9198C64.8862 39.5644 64.9941 39.4039 65.4006 39.4245C65.9328 39.4499 66.4663 39.4304 66.9997 39.4323C67.2355 39.4323 67.4735 39.4069 67.4679 39.7563C67.4623 40.1322 67.1782 40.0245 66.9716 40.0401C66.7818 40.0548 66.5842 40.0568 66.3966 40.0274C65.7902 39.9315 65.6274 40.1772 65.6521 40.7234C65.6712 41.1384 65.7869 41.3194 66.2383 41.2774C66.491 41.2539 66.7492 41.2813 67.003 41.2607C67.24 41.2411 67.2961 41.3762 67.3208 41.5436C67.3523 41.756 67.2265 41.8314 67.0176 41.8206C66.9963 41.8196 66.975 41.8177 66.9536 41.8206C66.5415 41.8764 65.9778 41.6268 65.7487 41.9547C65.5499 42.2395 65.6611 42.7299 65.6768 43.1283C65.688 43.4072 65.6173 43.5218 65.2961 43.5149C64.9772 43.5081 64.8963 43.3769 64.9031 43.1087C64.9154 42.5674 64.9065 42.0261 64.9065 41.4849H64.9098L64.9109 41.4839Z" fill="#F5F2ED"/>
<path d="M85.4003 41.432C85.4003 41.3517 85.4003 41.2714 85.4003 41.1912C85.4003 39.8528 86.1288 39.2626 87.5856 39.4205C87.8001 39.444 87.9573 39.4743 87.9517 39.7239C87.9461 39.9765 87.7821 40.0117 87.5677 40.0088C87.333 40.0049 87.0949 40.0342 86.8647 40.0058C86.3054 39.9354 86.1168 40.1292 86.1393 40.6704C86.1572 41.107 86.2673 41.3096 86.7535 41.2548C86.9433 41.2333 87.1376 41.2577 87.3285 41.2479C87.5362 41.2381 87.6957 41.244 87.7136 41.5103C87.7339 41.8215 87.5373 41.8088 87.3105 41.8215C86.1932 41.8871 86.1853 41.891 86.164 43.0049C86.1583 43.276 86.1437 43.4728 85.7743 43.4777C85.3813 43.4825 85.3958 43.2506 85.3981 42.9971C85.4037 42.4754 85.4003 41.9546 85.4003 41.4329V41.432Z" fill="#F5F2ED"/>
<path d="M85.5235 48.1466C85.5235 47.6249 85.5381 47.1032 85.5179 46.5825C85.5067 46.2908 85.5606 46.142 85.9256 46.1606C86.4792 46.188 87.035 46.1655 87.5898 46.1635C87.7908 46.1635 87.966 46.1665 87.975 46.4347C87.9851 46.7234 87.8245 46.7684 87.5774 46.7596C87.3427 46.7508 87.1047 46.7841 86.8745 46.7538C86.3905 46.6892 86.277 46.8771 86.2568 47.3166C86.231 47.853 86.4039 48.0595 86.9677 47.9694C87.0923 47.9499 87.226 47.9508 87.3506 47.9685C87.5325 47.9929 87.8099 47.8598 87.8245 48.2014C87.8402 48.5695 87.5842 48.5469 87.3113 48.5509C86.2568 48.5636 86.2568 48.5685 86.2726 49.5825C86.2737 49.6824 86.2714 49.7832 86.2815 49.883C86.313 50.1786 86.1614 50.255 85.8649 50.2569C85.564 50.2589 85.5146 50.1336 85.5202 49.8928C85.5325 49.3114 85.5247 48.729 85.5247 48.1476L85.5235 48.1466Z" fill="#F5F2ED"/>
<path d="M95.2486 39.4714C95.0454 39.9178 94.786 40.3181 94.4626 40.6901C93.8562 41.386 93.5889 42.1818 93.7124 43.0862C93.7416 43.3005 93.7753 43.5354 93.3856 43.5139C93.0892 43.4982 92.9286 43.4043 92.9825 43.1185C93.2049 41.9449 92.6254 41.0385 91.9045 40.1684C91.7416 39.9716 91.6462 39.7259 91.5137 39.491C92.0437 39.3207 92.3615 39.4626 92.5906 39.8904C92.804 40.2878 92.9881 40.9103 93.4238 40.9103C93.791 40.9103 94.0111 40.2946 94.2043 39.9002C94.4188 39.4607 94.7377 39.3158 95.2486 39.4714Z" fill="#F5F2ED"/>
<path d="M71.1987 26.6942C71.1987 27.214 71.2099 27.7347 71.1942 28.2544C71.1864 28.5197 71.2998 28.6048 71.567 28.6019C72.0353 28.598 72.5025 28.6195 72.9707 28.6244C73.2751 28.6274 73.3615 28.7742 73.357 29.0453C73.3525 29.3292 73.1639 29.3057 72.9719 29.3057C72.27 29.3057 71.567 29.29 70.8652 29.3076C70.5418 29.3155 70.4733 29.1872 70.4744 28.9161C70.4823 27.676 70.4811 26.4358 70.4688 25.1966C70.4665 24.9314 70.5755 24.8531 70.8438 24.8462C71.128 24.8384 71.2133 24.9431 71.2054 25.1957C71.192 25.6949 71.201 26.196 71.201 26.6952C71.201 26.6952 71.1998 26.6952 71.1987 26.6952V26.6942Z" fill="#F5F2ED"/>
<path d="M79.7356 39.4225C80.1825 39.4225 80.6306 39.4274 81.0775 39.4206C81.2999 39.4166 81.4369 39.4538 81.4268 39.7122C81.4167 39.9589 81.2853 39.9961 81.0652 40.0157C80.1399 40.0989 80.1376 40.1047 80.1309 40.9749C80.1253 41.6561 80.1286 42.3364 80.1309 43.0177C80.1309 43.2457 80.1466 43.4816 79.8019 43.4855C79.4594 43.4894 79.3909 43.2907 79.3954 43.0088C79.4077 42.1681 79.3841 41.3263 79.4088 40.4865C79.4189 40.1253 79.3122 39.9569 78.908 40.0117C78.762 40.0313 78.6104 40.0127 78.461 40.0176C78.2342 40.0245 78.1096 39.952 78.0983 39.7122C78.086 39.445 78.2466 39.4254 78.4588 39.4274C78.8844 39.4323 79.3111 39.4284 79.7367 39.4284C79.7367 39.4264 79.7367 39.4245 79.7367 39.4225H79.7356Z" fill="#F5F2ED"/>
<path d="M126.763 41.4456C126.763 41.3252 126.763 41.2057 126.763 41.0854C126.759 39.8514 127.421 39.3016 128.751 39.4361C128.974 39.4586 129.138 39.5202 129.154 39.7297C129.171 39.9636 128.987 40.0214 128.769 40.0165C128.578 40.0126 128.386 40.0175 128.195 40.0175C127.427 40.0175 127.203 40.3013 127.395 41.0012C127.451 41.2057 127.587 41.2429 127.769 41.2439C128.046 41.2439 128.323 41.2508 128.598 41.2371C128.842 41.2243 128.944 41.3105 128.945 41.5434C128.945 41.7598 128.827 41.793 128.631 41.8204C128.229 41.8743 127.685 41.611 127.457 41.9859C127.281 42.2746 127.404 42.7258 127.403 43.1056C127.403 43.3112 127.432 43.503 127.099 43.5069C126.787 43.5099 126.759 43.3493 126.761 43.1262C126.765 42.5663 126.762 42.0064 126.764 41.4465L126.763 41.4456Z" fill="#F5F2ED"/>
<path d="M112.416 41.7414C112.416 41.3401 112.384 40.9368 112.424 40.5394C112.467 40.099 112.273 39.959 111.841 40.0099C111.715 40.0246 111.584 40.005 111.458 40.0168C111.191 40.0422 111.141 39.9101 111.138 39.6928C111.133 39.4716 111.24 39.4236 111.446 39.4246C112.32 39.4285 113.195 39.4246 114.069 39.4246C114.272 39.4246 114.461 39.4383 114.458 39.7006C114.456 39.9365 114.315 39.9874 114.09 40.0099C113.058 40.1127 113.061 40.1195 113.075 41.1013C113.084 41.7228 113.091 42.3444 113.086 42.9659C113.085 43.19 113.173 43.4661 112.758 43.4896C112.311 43.516 112.425 43.2214 112.42 43.0041C112.41 42.5832 112.417 42.1623 112.416 41.7414Z" fill="#F5F2ED"/>
<path d="M136.748 41.8136C136.748 42.2336 136.748 42.6535 136.748 43.0724C136.748 43.2916 136.791 43.5207 136.412 43.5109C136.016 43.5011 136.119 43.2417 136.118 43.045C136.11 42.2257 136.09 41.4055 136.126 40.5872C136.145 40.1614 136.001 40.0009 135.557 40.0538C135.412 40.0714 135.26 40.0449 135.112 40.0371C134.949 40.0283 134.826 39.9901 134.833 39.7953C134.84 39.6241 134.85 39.4557 135.083 39.4528C135.975 39.444 136.868 39.441 137.761 39.4449C138.039 39.4459 138.024 39.6446 138.024 39.8316C138.024 40.0508 137.902 40.0772 137.697 40.0821C136.748 40.1076 136.748 40.1144 136.749 41.0326C136.749 41.2919 136.749 41.5523 136.749 41.8117L136.748 41.8136Z" fill="#F5F2ED"/>
<path d="M78.8646 27.0229C78.8646 26.4229 78.8769 25.822 78.859 25.2219C78.8511 24.942 78.9386 24.8412 79.2517 24.8422C79.5749 24.8422 79.6377 24.9645 79.6343 25.2337C79.622 26.4738 79.622 27.715 79.6298 28.9551C79.631 29.2047 79.5614 29.3124 79.273 29.3104C78.9858 29.3075 78.8489 29.2468 78.8578 28.9443C78.878 28.3042 78.8635 27.6641 78.8635 27.0239L78.8646 27.0229Z" fill="#F5F2ED"/>
<path d="M83.5981 41.4554C83.5981 41.9957 83.5914 42.537 83.6015 43.0773C83.6059 43.3083 83.5667 43.4757 83.266 43.4629C83.0034 43.4522 82.8306 43.3944 82.8351 43.0841C82.8508 41.983 82.8519 40.8818 82.8351 39.7807C82.8306 39.4743 82.9675 39.4175 83.2536 39.4156C83.5465 39.4126 83.6093 39.5281 83.6026 39.7748C83.588 40.3347 83.5981 40.8955 83.597 41.4564L83.5981 41.4554Z" fill="#F5F2ED"/>
<path d="M90.0017 41.4026C90.0017 41.9429 89.9927 42.4832 90.0062 43.0235C90.0118 43.2761 89.977 43.4493 89.6437 43.4513C89.3464 43.4532 89.233 43.3544 89.2364 43.0656C89.2499 41.9645 89.2476 40.8643 89.2364 39.7631C89.2342 39.5096 89.3026 39.4039 89.591 39.4157C89.8659 39.4264 90.0219 39.4675 90.0062 39.7827C89.9792 40.322 89.9983 40.8633 89.9983 41.4036H90.0006L90.0017 41.4026Z" fill="#F5F2ED"/>
<path d="M97.3019 41.4877C97.3019 42.0466 97.3008 42.6045 97.3019 43.1634C97.3019 43.3523 97.3086 43.5177 97.0146 43.5128C96.7476 43.5089 96.6297 43.4218 96.6309 43.1654C96.6365 42.028 96.6387 40.8916 96.632 39.7542C96.6309 39.4997 96.7296 39.4116 97.0068 39.4136C97.2895 39.4156 97.3052 39.5526 97.303 39.7523C97.2974 40.3307 97.3008 40.9092 97.3008 41.4877H97.3019Z" fill="#F5F2ED"/>
</svg>
