<svg width="38" height="38" viewBox="0 0 38 38" fill="none" xmlns="http://www.w3.org/2000/svg">
<path d="M12.6667 4.75C8.29508 4.75 4.75 8.29508 4.75 12.6667V25.3333C4.75 29.7049 8.29508 33.25 12.6667 33.25H25.3333C29.7049 33.25 33.25 29.7049 33.25 25.3333V12.6667C33.25 8.29508 29.7049 4.75 25.3333 4.75H12.6667ZM28.5 7.91667C29.374 7.91667 30.0833 8.626 30.0833 9.5C30.0833 10.374 29.374 11.0833 28.5 11.0833C27.626 11.0833 26.9167 10.374 26.9167 9.5C26.9167 8.626 27.626 7.91667 28.5 7.91667ZM19 11.0833C23.3716 11.0833 26.9167 14.6284 26.9167 19C26.9167 23.3716 23.3716 26.9167 19 26.9167C14.6284 26.9167 11.0833 23.3716 11.0833 19C11.0833 14.6284 14.6284 11.0833 19 11.0833ZM19 14.25C17.7402 14.25 16.532 14.7504 15.6412 15.6412C14.7504 16.532 14.25 17.7402 14.25 19C14.25 20.2598 14.7504 21.468 15.6412 22.3588C16.532 23.2496 17.7402 23.75 19 23.75C20.2598 23.75 21.468 23.2496 22.3588 22.3588C23.2496 21.468 23.75 20.2598 23.75 19C23.75 17.7402 23.2496 16.532 22.3588 15.6412C21.468 14.7504 20.2598 14.25 19 14.25Z" fill="#F6D6A4"/>
</svg>
