<svg width="38" height="38" viewBox="0 0 38 38" fill="none" xmlns="http://www.w3.org/2000/svg">
<path d="M30.0833 4.75H7.91667C6.16708 4.75 4.75 6.16708 4.75 7.91667V30.0833C4.75 31.8329 6.16708 33.25 7.91667 33.25H30.0833C31.8329 33.25 33.25 31.8329 33.25 30.0833V7.91667C33.25 6.16708 31.8329 4.75 30.0833 4.75ZM14.25 26.9167H10.2553V15.8333H14.25V26.9167ZM12.1822 13.8019C10.9614 13.8019 10.146 12.9881 10.146 11.9019C10.146 10.8158 10.9598 10.0019 12.3168 10.0019C13.5375 10.0019 14.3529 10.8158 14.3529 11.9019C14.3529 12.9881 13.5391 13.8019 12.1822 13.8019ZM28.5 26.9167H24.6335V20.8588C24.6335 19.1837 23.6028 18.7973 23.2164 18.7973C22.8301 18.7973 21.5413 19.0554 21.5413 20.8588C21.5413 21.1169 21.5413 26.9167 21.5413 26.9167H17.5465V15.8333H21.5413V17.3803C22.0558 16.4778 23.0866 15.8333 25.0198 15.8333C26.9531 15.8333 28.5 17.3802 28.5 20.8588V26.9167Z" fill="#F6D6A4"/>
</svg>
