<svg width="38" height="38" viewBox="0 0 38 38" fill="none" xmlns="http://www.w3.org/2000/svg">
<path d="M32.146 4.72525C31.6885 4.74515 31.2686 4.87674 30.8997 5.02213C30.559 5.15633 29.3353 5.67066 27.3867 6.48795C25.4382 7.30524 22.8562 8.38886 20.104 9.54638C14.5997 11.8614 8.41421 14.4655 5.24479 15.7993C5.13595 15.8447 4.69393 15.98 4.20573 16.3529C3.7164 16.7266 3.17285 17.5377 3.17285 18.4248C3.17285 19.1404 3.53007 19.8692 3.96143 20.2864C4.39278 20.7037 4.82994 20.8988 5.19531 21.0441V21.041C6.43036 21.533 10.1186 23.0089 10.9967 23.3603C11.3082 24.2938 12.6454 28.2898 12.9635 29.2948H12.9604C13.1853 30.006 13.4045 30.4695 13.7088 30.8564C13.861 31.0499 14.0426 31.2252 14.2655 31.3636C14.351 31.4167 14.4456 31.4579 14.5407 31.4966C14.5539 31.5022 14.5676 31.5036 14.5809 31.5089L14.5438 31.4997C14.5713 31.5107 14.5961 31.5271 14.6242 31.5368C14.67 31.5525 14.7017 31.552 14.7633 31.5646C14.9803 31.6313 15.1968 31.6759 15.3973 31.6759C16.258 31.6759 16.7858 31.209 16.7858 31.209L16.8198 31.1842L20.5369 28.0392L25.089 32.2511C25.1722 32.3685 25.8235 33.25 27.3311 33.25C28.2306 33.25 28.9418 32.8047 29.3968 32.3377C29.8518 31.8707 30.1353 31.3928 30.2627 30.7451L30.2658 30.742C30.3674 30.2192 34.7251 8.33723 34.7251 8.33723L34.7158 8.37434C34.8514 7.76896 34.8915 7.18352 34.7313 6.5869C34.5711 5.99029 34.1387 5.40806 33.618 5.10253C33.0973 4.797 32.6035 4.70535 32.146 4.72525ZM31.5213 8.19189C31.3491 9.05643 27.4455 28.6676 27.2043 29.8978L20.6297 23.8149L16.1859 27.5723L17.4167 22.7604C17.4167 22.7604 25.9074 14.1659 26.4188 13.6655C26.8304 13.2649 26.9167 13.1245 26.9167 12.9852C26.9167 12.7999 26.8213 12.6667 26.6012 12.6667C26.4033 12.6667 26.1345 12.8563 25.992 12.945C24.1812 14.0739 16.4687 18.4691 12.6759 20.6266C12.4477 20.5351 9.02088 19.159 7.17448 18.4217C10.4587 17.0395 16.0885 14.6709 21.3317 12.4656C24.0834 11.3083 26.6646 10.2237 28.6113 9.40722C30.2546 8.71798 31.1118 8.3611 31.5213 8.19189ZM27.1579 30.1235H27.161L27.1579 30.1328C27.1599 30.1226 27.1564 30.1315 27.1579 30.1235Z" fill="#F6D6A4"/>
</svg>
